<?xml version="1.0" standalone="no"?>
<!DOCTYPE svg PUBLIC "-//W3C//DTD SVG 20010904//EN"
 "http://www.w3.org/TR/2001/REC-SVG-20010904/DTD/svg10.dtd">
<svg version="1.0" xmlns="http://www.w3.org/2000/svg"
 width="582.000000pt" height="582.000000pt" viewBox="0 0 582.000000 582.000000"
 preserveAspectRatio="xMidYMid meet">
<metadata>
Created by potrace 1.14, written by Peter Selinger 2001-2017
</metadata>
<g transform="translate(0.000000,582.000000) scale(0.100000,-0.100000)"
fill="#000000" stroke="none">
<path d="M1815 5605 c-31 -8 -59 -24 -75 -42 -24 -26 -61 -56 -145 -118 -16
-11 -59 -44 -97 -74 -61 -47 -68 -56 -63 -80 3 -14 7 -37 10 -51 2 -14 16 -88
29 -165 14 -77 28 -154 31 -171 7 -29 5 -32 -27 -38 -72 -13 -82 -16 -113 -26
-25 -8 -36 -21 -49 -53 -23 -62 -36 -170 -32 -277 3 -104 20 -157 63 -202 24
-25 25 -28 9 -44 -23 -23 -15 -39 20 -39 28 -1 29 -2 27 -49 -2 -34 -8 -54
-23 -68 -11 -10 -20 -29 -20 -42 0 -16 -6 -23 -17 -23 -27 2 -126 -24 -145
-38 -35 -23 -9 -221 39 -294 14 -22 18 -23 126 -19 121 5 137 3 137 -17 0 -17
49 -57 61 -50 15 10 32 -41 45 -135 6 -46 6 -165 -1 -192 -5 -20 -16 -28 -49
-37 -59 -15 -70 -31 -63 -91 4 -35 3 -50 -6 -51 -7 0 -19 -2 -27 -4 -8 -2 -60
-10 -115 -19 -122 -20 -300 -63 -337 -82 -33 -17 -46 -39 -53 -90 -6 -48 -7
-260 0 -293 2 -12 7 -42 9 -66 6 -52 44 -155 57 -155 5 0 9 -4 9 -10 0 -5 -13
-10 -30 -10 -34 0 -70 -33 -70 -65 0 -46 21 -85 45 -85 22 0 54 -22 56 -38 0
-4 2 -14 4 -22 42 -176 56 -330 41 -444 -10 -73 -20 -87 -60 -82 -55 7 -90
-49 -95 -153 -2 -54 7 -70 50 -82 26 -8 36 -16 30 -23 -20 -24 -102 -271 -115
-344 -23 -139 -4 -245 56 -299 41 -38 144 -83 343 -148 385 -128 902 -254
1107 -270 48 -4 74 1 165 34 59 21 162 58 228 81 66 23 147 52 180 65 106 41
389 147 430 162 22 8 54 20 70 28 17 7 106 46 200 86 222 96 332 162 344 203
16 60 -11 136 -47 136 -9 -1 -34 -7 -54 -14 l-38 -14 -33 52 c-81 123 -121
211 -129 283 -6 49 -8 48 91 48 55 0 76 -4 82 -15 4 -8 18 -37 30 -65 38 -85
260 -457 289 -485 11 -11 110 -159 110 -165 0 -4 -9 -18 -20 -32 -11 -14 -20
-31 -20 -38 0 -7 36 -60 79 -118 44 -59 82 -115 86 -126 8 -26 92 -113 140
-145 42 -27 61 -31 84 -17 11 7 6 18 -23 55 -28 33 -50 80 -81 173 -53 155
-77 212 -102 238 -24 25 -60 101 -113 235 -23 58 -48 119 -55 135 -21 49 -64
160 -121 315 l-53 144 25 33 c27 36 28 44 8 247 -5 54 -4 66 8 66 15 0 119
-229 118 -262 0 -19 36 -48 61 -48 18 0 24 -14 60 -124 12 -38 48 -122 80
-188 33 -65 59 -123 59 -128 0 -4 3 -10 8 -12 4 -1 26 -41 49 -88 23 -47 68
-132 99 -189 l56 -103 2 -197 c3 -193 2 -196 -21 -225 -30 -36 -27 -62 7 -58
34 5 120 42 121 53 1 5 2 12 3 17 10 38 16 75 21 117 3 28 8 59 10 70 2 11 4
34 4 50 1 19 12 42 31 62 17 18 30 42 30 53 0 31 -95 119 -121 113 -4 -2 -28
61 -53 140 -44 140 -97 312 -103 332 -31 116 -65 233 -70 245 -3 8 -8 23 -9
32 -2 10 -5 23 -6 29 -2 7 24 19 62 29 102 28 145 46 145 61 1 8 -10 31 -23
52 -13 21 -31 53 -41 70 -10 18 -78 133 -151 257 -169 287 -178 301 -190 325
-56 114 -99 155 -163 158 -30 2 -32 4 -32 42 0 56 3 63 36 70 47 10 49 -19
-30 335 -23 102 -50 219 -61 260 -10 41 -21 91 -24 110 -3 19 -13 60 -21 90
-18 68 -18 75 -1 92 7 8 21 28 30 46 10 19 24 32 35 32 24 0 81 55 82 78 0 9
3 29 5 43 2 15 0 39 -6 54 -9 25 -14 27 -55 23 -43 -3 -46 -2 -54 27 -4 16 -7
33 -5 36 2 4 24 -1 48 -9 25 -9 48 -13 53 -9 7 8 7 116 0 147 -2 8 -7 33 -12
55 -20 105 -103 205 -190 230 -61 18 -164 25 -214 14 -30 -7 -40 -3 -76 26
-66 54 -129 78 -210 78 -88 1 -126 -8 -258 -60 l-69 -27 -36 39 c-19 22 -52
59 -73 82 -44 47 -47 59 -20 105 19 31 52 123 65 179 9 38 -5 43 -32 12 l-23
-28 6 52 c7 65 -10 79 -31 26 -33 -79 -56 -81 -42 -2 6 33 6 55 0 61 -16 16
-48 -54 -51 -109 -2 -25 -17 -12 -39 33 -13 25 -28 44 -35 41 -13 -4 -18 -89
-6 -123 4 -11 4 -27 -1 -34 -6 -10 -14 -9 -36 7 -16 12 -56 35 -89 53 -33 19
-82 46 -110 61 -27 15 -87 47 -132 71 l-83 43 -1 45 c-1 25 -3 70 -4 100 -13
292 -18 367 -27 377 -11 13 -286 104 -386 127 -35 8 -69 20 -77 26 -26 22 -70
27 -120 15z m1293 -1438 c3 -37 4 -37 44 -35 55 4 61 -18 8 -27 -54 -9 -36
-30 28 -34 10 -1 9 -8 -5 -31 -17 -29 -58 -41 -77 -22 -4 4 -24 12 -44 17 -20
6 -37 15 -36 20 5 83 18 134 38 143 32 16 41 9 44 -31z m420 -1550 c35 -58 43
-88 17 -67 -8 7 -15 18 -15 26 0 7 -9 15 -19 19 -28 9 -71 44 -71 59 0 6 13
13 28 14 24 2 32 -6 60 -51z"/>
</g>
</svg>
